<?xml version="1.0" encoding="utf-8"?>
<!-- Generator: Adobe Illustrator 25.4.1, SVG Export Plug-In . SVG Version: 6.00 Build 0)  -->
<svg version="1.1"
	 id="svg44" xmlns:cc="http://creativecommons.org/ns#" xmlns:dc="http://purl.org/dc/elements/1.1/" xmlns:inkscape="http://www.inkscape.org/namespaces/inkscape" xmlns:rdf="http://www.w3.org/1999/02/22-rdf-syntax-ns#" xmlns:sodipodi="http://sodipodi.sourceforge.net/DTD/sodipodi-0.dtd" xmlns:svg="http://www.w3.org/2000/svg"
	 xmlns="http://www.w3.org/2000/svg" xmlns:xlink="http://www.w3.org/1999/xlink" x="0px" y="0px" viewBox="0 0 560 560"
	 style="enable-background:new 0 0 560 560;" xml:space="preserve">
<style type="text/css">
	.st0{fill:#FFFFFF;}
</style>
<sodipodi:namedview  bordercolor="#666666" borderopacity="1" gridtolerance="10" guidetolerance="10" id="namedview46" inkscape:current-layer="svg44" inkscape:cx="-172.33051" inkscape:cy="280" inkscape:pageopacity="0" inkscape:pageshadow="2" inkscape:window-height="711" inkscape:window-maximized="1" inkscape:window-width="1366" inkscape:window-x="0" inkscape:window-y="20" inkscape:zoom="0.33714286" objecttolerance="10" pagecolor="#ffffff" showgrid="false">
	</sodipodi:namedview>
<g>
	<g>
		<g>
			<polygon class="st0" points="253.4,287.3 253.3,334.9 223.7,296.6 237.2,287.3 			"/>
			<polygon class="st0" points="172.1,228.7 164,239.4 121.7,204.4 172,204.5 			"/>
			<polygon class="st0" points="172.1,257.2 172.1,280.5 123,280.5 164.8,250 			"/>
			<polygon class="st0" points="102.5,204.4 66.1,204.4 47.8,244.4 66.1,280.3 102.5,280.4 151.3,244.8 			"/>
			<polygon class="st0" points="211.9,295.9 178,336.6 178,287.5 198.8,287.3 			"/>
			<polygon class="st0" points="111.6,293.2 80.2,323 93.2,362.9 133.3,376.6 165.8,346.8 165.8,293.2 			"/>
			<polygon class="st0" points="217.3,308.4 178,354.9 178,391 179.1,391.5 179.1,391.5 217.3,408.2 253.2,391.5 253.3,354.9 			"/>
			<g>
				<path class="st0" d="M281.2,290.9V306h18.7v6.1h-18.7v26.4h-6.7v-53.7h26v6.1H281.2z"/>
				<path class="st0" d="M343.5,285.8c3.4,1.5,6.4,3.5,9,6c2.6,2.6,4.6,5.6,6.1,9s2.2,7,2.2,10.8c0,3.9-0.7,7.6-2.2,11s-3.5,6.4-6,9
					c-2.6,2.5-5.6,4.5-9,5.9s-7,2.1-10.9,2.1s-7.5-0.7-10.9-2.1c-3.4-1.4-6.4-3.4-9-5.9s-4.6-5.5-6-9c-1.5-3.4-2.2-7.1-2.2-11
					c0-3.8,0.7-7.3,2.2-10.8c1.5-3.4,3.5-6.4,6.1-9s5.6-4.6,9-6c3.4-1.5,7-2.2,10.8-2.2C336.5,283.6,340.1,284.3,343.5,285.8z
					 M340.9,331.7c2.6-1.1,4.9-2.6,6.9-4.6c2-2,3.5-4.3,4.7-7c1.1-2.7,1.7-5.5,1.7-8.5c0-2.9-0.5-5.7-1.6-8.4c-1-2.6-2.5-5-4.5-7
					c-1.9-2-4.2-3.6-6.8-4.7c-2.6-1.1-5.5-1.7-8.6-1.7c-3.1,0-6,0.6-8.6,1.7c-2.6,1.1-4.9,2.7-6.8,4.7c-1.9,2-3.4,4.3-4.5,7
					s-1.6,5.4-1.6,8.4c0,3,0.6,5.8,1.7,8.5c1.1,2.7,2.7,5,4.7,7c2,2,4.3,3.5,6.9,4.6s5.3,1.6,8.2,1.6
					C335.6,333.3,338.3,332.8,340.9,331.7z"/>
				<path class="st0" d="M400.7,338.4h-8.1l-15.8-22.7h-2.8v22.7h-6.7v-53.7h8.1c3.1,0,5.8,0.1,8,0.4c2.2,0.3,4.3,1,6.2,2.1
					c2.2,1.3,3.9,3.1,5.2,5.4c1.3,2.3,1.9,4.8,1.9,7.4c0,3.9-1.2,7.2-3.6,10.1s-5.5,4.5-9.3,5L400.7,338.4z M374,310.2h2.1
					c2,0,3.8-0.1,5.4-0.4s3.1-0.7,4.5-1.4c1.3-0.7,2.4-1.7,3.2-3c0.8-1.3,1.2-3,1.2-5c0-2-0.4-3.6-1.3-5s-2-2.3-3.4-3
					c-1.4-0.7-2.9-1.1-4.6-1.4c-1.7-0.2-3.4-0.4-5.3-0.4H374L374,310.2L374,310.2z"/>
				<path class="st0" d="M411.7,284.7v31.7c0,2.4,0.2,4.5,0.6,6.5c0.4,2,1.1,3.7,2.1,5.3c1,1.6,2.3,2.8,4,3.7
					c1.7,0.9,3.8,1.4,6.3,1.4c2.5,0,4.6-0.5,6.3-1.4s3-2.1,4-3.7c1-1.6,1.7-3.3,2.1-5.3c0.4-2,0.6-4.1,0.6-6.5v-31.7h6.7v34
					c0,2.9-0.5,5.7-1.3,8.3c-0.9,2.6-2.2,4.8-3.9,6.7c-1.7,1.9-3.8,3.3-6.2,4.4s-5.2,1.6-8.2,1.6c-3,0-5.8-0.5-8.2-1.6
					c-2.4-1-4.5-2.5-6.2-4.4c-1.7-1.9-3-4.1-3.9-6.7c-0.9-2.5-1.3-5.3-1.3-8.2v-34L411.7,284.7L411.7,284.7z"/>
				<path class="st0" d="M462.7,303h-0.1l-6.3,35.5h-6.9l11-56l18.4,42.3l18.4-42.3l11,56h-6.9L495,303h-0.1l-16.1,36.6L462.7,303z"
					/>
			</g>
		</g>
		<g>
			<path class="st0" d="M224.7,260.1c-13.1,0-21.7-3.5-30.8-13.4l11.3-12.2c4.3,4.8,10.4,8.9,19,8.9c7.5,0,14.2-5.4,14.2-12.9
				c0-6.2-4.3-10.3-10.1-12.4c-2.7-1-5.7-2-9.2-3.4c-16.5-6.7-21.7-14.1-21.7-27.5c0-16.6,13.8-28.4,29.9-28.4
				c11.4,0,20.3,4.1,27,11.4l-10.3,12c-3.7-3.3-8-7.4-16-7.4c-6.3,0-12.2,5.3-12.2,11.8c0,5.8,4.1,9,9.1,11.2
				c3.9,1.6,6.2,2.7,10.1,4.2c13.6,5.2,22.1,14.6,22.1,28.8C257.2,247.8,241.5,260.1,224.7,260.1z"/>
			<path class="st0" d="M272.7,257.4v-97.1h18.5v97.1H272.7z"/>
			<path class="st0" d="M358,259.8c-27.6,0-50.3-20.9-50.3-51c0-28.6,22.3-50.6,50.1-50.6c19.3,0,34.7,9.2,44.1,22.9
				c-3.8,3.2-10.1,8.4-14.6,11.4c-6-8.5-15.5-17-28.9-17c-18.4,0-31.6,15-31.6,34c0,18.5,13.6,32.7,31.6,32.7
				c13.7,0,24.9-6.9,26.9-20.4c-6.5,0-20.9,0-26.6,0c0-3,0-15.7,0-15.7s41.3,0,47.2,0C405.8,234.4,391.9,259.8,358,259.8z"/>
			<path class="st0" d="M487.8,257.4l-7.5-19.8h-40.6l-7.7,19.8h-19.4l38.3-97.1h20.2l37.1,97.1H487.8z M460.8,181.5l-15.5,41.1
				h29.8L460.8,181.5z"/>
		</g>
	</g>
</g>
</svg>
