<?xml version="1.0" encoding="UTF-8"?>
<svg width="31px" height="24px" viewBox="0 0 31 24" version="1.1" xmlns="http://www.w3.org/2000/svg" xmlns:xlink="http://www.w3.org/1999/xlink">
    <!-- Generator: Sketch 43.2 (39069) - http://www.bohemiancoding.com/sketch -->
    <title>icon--coder-black copy 3</title>
    <desc>Created with Sketch.</desc>
    <defs></defs>
    <g id="Website" stroke="none" stroke-width="1" fill="none" fill-rule="evenodd">
        <g id="Teams-Dashboard-Copy" transform="translate(-217.000000, -497.000000)" fill-rule="nonzero" fill="#DD2914">
            <g id="Group-13-Copy-5" transform="translate(116.000000, 488.000000)">
                <g id="Group-Copy-4" transform="translate(21.000000, 0.000000)">
                    <g id="Code" transform="translate(67.000000, 0.000000)">
                        <g id="icon--coder-black-copy-3" transform="translate(13.382716, 9.913043)">
                            <path d="M18.9476092,0.322033854 L17.917758,0.0384945243 C17.7852024,-0.00589976715 17.6546243,0.00806106923 17.5276523,0.0802602063 C17.4002733,0.152517757 17.3142488,0.260991703 17.2700441,0.405506804 L11.075931,21.9360372 C11.0317264,22.0806107 11.0455694,22.2169479 11.1175182,22.3446399 C11.189467,22.4725655 11.2972449,22.5587255 11.4413752,22.6031198 L12.4709355,22.886776 C12.603782,22.9315207 12.7338948,22.9175015 12.8612157,22.8451855 C12.9885948,22.7725775 13.0744448,22.664454 13.1185912,22.5201726 L19.3128789,0.989291736 C19.3570253,0.844776635 19.3432986,0.70843943 19.2712335,0.580455361 C19.1992265,0.452529705 19.091565,0.366369732 18.9476092,0.322033854 Z" id="Shape"></path>
                            <path d="M9.66493138,4.52500498 C9.66493138,4.38048988 9.60950112,4.25250581 9.4988151,4.14140325 L8.66840819,3.30749154 C8.55772216,3.19633057 8.43034308,3.14060405 8.28644544,3.14060405 C8.14254779,3.14060405 8.01511054,3.19638898 7.90448269,3.30749154 L0.166116281,11.0790627 C0.0552557656,11.1902237 0,11.3181494 0,11.4626645 C0,11.6071796 0.0554302575,11.7351052 0.166116281,11.8462078 L7.90442452,19.617779 C8.01505238,19.7291152 8.14225697,19.7844912 8.28638727,19.7844912 C8.43051757,19.7844912 8.55772216,19.7289399 8.66835002,19.617779 L9.49875693,18.7843346 C9.60944296,18.673232 9.66487321,18.5452479 9.66487321,18.4005576 C9.66487321,18.2562177 9.60944296,18.1282921 9.49875693,18.0171895 L2.9725857,11.4626645 L9.4988151,4.9086067 C9.60967561,4.79750415 9.66493138,4.66952008 9.66493138,4.52500498 Z" id="Shape"></path>
                            <path d="M30.2228099,11.0788875 L22.484269,3.3073163 C22.3736411,3.19621374 22.2462039,3.14042881 22.1025389,3.14042881 C21.9584086,3.14042881 21.8314367,3.19621374 21.7204017,3.3073163 L20.8903437,4.1411696 C20.7797159,4.25233057 20.7245183,4.38008098 20.7245183,4.52477132 C20.7245183,4.66946167 20.7796577,4.79727049 20.8903437,4.90837305 L27.4166895,11.462606 L20.8903437,18.0171895 C20.7797159,18.1282921 20.7245183,18.2562761 20.7245183,18.4005576 C20.7245183,18.5453063 20.7796577,18.673232 20.8903437,18.7843346 L21.7204017,19.617779 C21.8314367,19.7291152 21.9584668,19.7844912 22.1025389,19.7844912 C22.2462621,19.7844912 22.3736411,19.7289399 22.484269,19.617779 L30.2228099,11.8462662 C30.3334959,11.7351636 30.3888099,11.6070043 30.3888099,11.4624892 C30.3888099,11.3179157 30.3334959,11.18999 30.2228099,11.0788875 Z" id="Shape"></path>
                        </g>
                    </g>
                </g>
            </g>
        </g>
    </g>
</svg>