<svg width="28" height="42" viewBox="0 0 28 42" fill="none" xmlns="http://www.w3.org/2000/svg">
<path d="M28 11.7845C28 19.0715 20.5 23.9995 20.5 29.75H16.516C16.518 26.1117 18.51 23.0545 20.452 20.1023C22.276 17.3285 24 14.707 24 11.7845C24 6.3455 18.966 3.5 13.992 3.5C9.026 3.5 4 6.3455 4 11.7845C4 14.707 5.724 17.3285 7.548 20.1023C9.49 23.0545 11.48 26.1117 11.482 29.75H7.5C7.5 23.9995 0 19.0697 0 11.7845C0 4.18425 6.996 0 13.992 0C20.996 0 28 4.1895 28 11.7845ZM20 32.375C20 32.858 19.552 33.25 19 33.25H9C8.448 33.25 8 32.858 8 32.375C8 31.892 8.448 31.5 9 31.5H19C19.552 31.5 20 31.892 20 32.375ZM20 35.875C20 36.358 19.552 36.75 19 36.75H9C8.448 36.75 8 36.358 8 35.875C8 35.392 8.448 35 9 35H19C19.552 35 20 35.392 20 35.875ZM16.598 41.4033C16.218 41.7812 15.668 42 15.092 42H12.906C12.33 42 11.782 41.7812 11.402 41.4033L8.5 38.5H19.5L16.598 41.4033Z" fill="#D8D7D7"/>
</svg>
