<?xml version="1.0" encoding="UTF-8"?>
<svg width="27px" height="27px" viewBox="0 0 27 27" version="1.1" xmlns="http://www.w3.org/2000/svg" xmlns:xlink="http://www.w3.org/1999/xlink">
    <!-- Generator: Sketch 43.2 (39069) - http://www.bohemiancoding.com/sketch -->
    <title>icon--protractor-black copy 3</title>
    <desc>Created with Sketch.</desc>
    <defs></defs>
    <g id="Website" stroke="none" stroke-width="1" fill="none" fill-rule="evenodd">
        <g id="Teams-Dashboard-Copy" transform="translate(-152.000000, -496.000000)" fill-rule="nonzero" fill="#1083E8">
            <g id="Group-13-Copy-5" transform="translate(116.000000, 488.000000)">
                <g id="Group-Copy-4" transform="translate(21.000000, 0.000000)">
                    <g id="Design">
                        <g id="icon--protractor-black-copy-3" transform="translate(15.074074, 8.000000)">
                            <path d="M21.9656099,3.69082133 C19.5396819,1.31078227 16.3140757,0 12.8832624,0 C9.45244916,0 6.22695343,1.31078227 3.80102546,3.69082133 C1.37509748,6.07086039 0.0390423646,9.23539674 0.0390423646,12.6013127 C0.0390423646,15.9672286 1.37509748,19.1317108 3.80102546,21.511804 L7.25580534,24.9012874 L25.4203897,7.08025051 L21.9656099,3.69082133 Z M5.58256114,20.9292281 L6.59506716,19.9358205 L5.40733989,18.7705603 L4.41670201,19.7424592 C3.82140259,19.0652886 3.31860099,18.3275469 2.91415081,17.544404 L4.21282024,17.0166563 L3.5700294,15.4942006 L2.27141519,16.0219484 C1.99298294,15.1876073 1.81682291,14.3170754 1.74961703,13.4253057 L3.15055868,13.4253057 L3.15055868,11.7773738 L1.74967225,11.7773738 C1.81682291,10.8855499 1.99292772,10.0151264 2.27147042,9.18078533 L3.57013985,9.70853312 L4.21293069,8.18607745 L2.91431648,7.65832965 C3.31876666,6.87518682 3.82156826,6.13744514 4.41686768,5.46027446 L5.40750556,6.4321734 L6.59523283,5.26691321 L5.60453973,4.29490591 C6.29476676,3.71092137 7.04667742,3.21763077 7.84491983,2.82083118 L8.38284299,4.09493495 L9.93470796,3.46430316 L9.3967848,2.19019939 C10.2472125,1.91703397 11.1344737,1.74420618 12.0434374,1.67827157 L12.0434374,3.05271298 L13.7231427,3.05271298 L13.7231427,1.67832575 C14.6321616,1.74420618 15.5193676,1.91703397 16.3697953,2.19025357 L15.8318721,3.46441151 L17.3837371,4.09498913 L17.9216603,2.82088536 C18.7199027,3.21768495 19.4718686,3.71097554 20.1620956,4.29496009 L19.1714577,5.26685904 L20.359185,6.43211923 L21.371691,5.43876579 L23.0449352,7.08035887 L7.25569489,22.5708753 L5.58256114,20.9292281 Z" id="Shape"></path>
                            <path d="M19.1046384,6.49767459 C17.4453103,4.8696802 15.2357996,3.97308865 12.8832624,3.97308865 C10.5307253,3.97308865 8.32126981,4.8696802 6.6619417,6.49767459 C3.23140454,9.86326546 3.23140454,15.3394141 6.66188648,18.7050049 L7.25569489,19.2876892 L19.6984468,7.08030469 L19.1046384,6.49767459 Z M7.29054034,16.9229825 C5.08865038,14.1843393 5.27497136,10.1888752 7.84961375,7.66293478 C9.19174335,6.34619293 10.9793535,5.62102055 12.8832072,5.62102055 C14.5034377,5.62102055 16.0394538,6.14622198 17.2884229,7.11422011 L7.29054034,16.9229825 Z" id="Shape"></path>
                            <path d="M8.7700085,25.2215876 L9.95773577,26.3868478 L20.550973,15.9939925 C21.7969049,16.9923845 23.2979651,17.6023745 24.8985363,17.7607368 L24.8985363,26.7390763 L26.5782416,26.7390763 L26.5782416,7.75010717 L8.7700085,25.2215876 Z M24.8985363,16.1020234 C23.7465933,15.95791 22.6648382,15.518364 21.7464867,14.8210932 L24.8985363,11.7286678 L24.8985363,16.1020234 Z" id="Shape"></path>
                        </g>
                    </g>
                </g>
            </g>
        </g>
    </g>
</svg>